<svg width="41" height="40" viewBox="0 0 41 40" fill="none" xmlns="http://www.w3.org/2000/svg">
<rect x="0.5" width="40" height="40" rx="8" fill="url(#paint0_linear_356_21)"/>
<path d="M27.4195 13.0805C26.4268 12.0863 25.128 11.4557 23.7329 11.2903C22.3377 11.1249 20.9275 11.4344 19.7298 12.1688C18.5321 12.9032 17.6168 14.0198 17.1316 15.3383C16.6464 16.6568 16.6196 18.1003 17.0555 19.4359L12.7414 23.75C12.6248 23.8656 12.5324 24.0033 12.4695 24.155C12.4066 24.3067 12.3745 24.4694 12.375 24.6336V26.875C12.375 27.2065 12.5067 27.5245 12.7411 27.7589C12.9755 27.9933 13.2935 28.125 13.625 28.125H16.125C16.2908 28.125 16.4497 28.0591 16.5669 27.9419C16.6842 27.8247 16.75 27.6658 16.75 27.5V26.25H18C18.1658 26.25 18.3247 26.1841 18.4419 26.0669C18.5592 25.9497 18.625 25.7908 18.625 25.625V24.375H19.875C19.9571 24.3751 20.0384 24.3589 20.1143 24.3276C20.1902 24.2962 20.2591 24.2502 20.3172 24.1922L21.0641 23.4445C21.6892 23.6479 22.3426 23.751 23 23.75H23.0078C24.2433 23.7485 25.4507 23.3808 26.4773 22.6935C27.504 22.0062 28.3039 21.0299 28.776 19.8882C29.2481 18.7464 29.3712 17.4904 29.1298 16.2787C28.8883 15.067 28.2932 13.9541 27.4195 13.0805ZM24.5625 17.1875C24.3153 17.1875 24.0736 17.1142 23.868 16.9768C23.6625 16.8395 23.5023 16.6443 23.4077 16.4158C23.313 16.1874 23.2883 15.9361 23.3365 15.6936C23.3848 15.4512 23.5038 15.2284 23.6786 15.0536C23.8534 14.8788 24.0762 14.7597 24.3186 14.7115C24.5611 14.6633 24.8125 14.688 25.0409 14.7826C25.2693 14.8773 25.4645 15.0375 25.6018 15.243C25.7392 15.4486 25.8125 15.6903 25.8125 15.9375C25.8125 16.269 25.6808 16.587 25.4464 16.8214C25.212 17.0558 24.894 17.1875 24.5625 17.1875Z" fill="white"/>
<defs>
<linearGradient id="paint0_linear_356_21" x1="-2.32486" y1="20.0147" x2="43.3249" y2="20.0147" gradientUnits="userSpaceOnUse">
<stop stop-color="#FAB13F" stop-opacity="0.4"/>
<stop offset="1" stop-color="#FAB13F"/>
</linearGradient>
</defs>
</svg>
