<svg width="40" height="40" viewBox="0 0 40 40" fill="none" xmlns="http://www.w3.org/2000/svg">
<rect width="40" height="40" rx="8" fill="url(#paint0_linear_356_79)"/>
<path d="M22.8492 25.2836C22.9107 25.3779 22.9456 25.4871 22.9502 25.5996C22.9548 25.712 22.9289 25.8237 22.8753 25.9227C22.8217 26.0217 22.7423 26.1043 22.6456 26.162C22.5489 26.2196 22.4384 26.25 22.3258 26.25H10.7992C10.6867 26.25 10.5762 26.2196 10.4795 26.162C10.3827 26.1043 10.3034 26.0217 10.2498 25.9227C10.1961 25.8237 10.1702 25.712 10.1748 25.5996C10.1794 25.4871 10.2143 25.3779 10.2758 25.2836C11.1556 23.9294 12.4496 22.896 13.9649 22.3375C13.1272 21.7798 12.4912 20.9674 12.151 20.0204C11.8108 19.0733 11.7844 18.0419 12.0757 17.0787C12.367 16.1155 12.9606 15.2715 13.7686 14.6718C14.5766 14.072 15.5562 13.7481 16.5625 13.7481C17.5688 13.7481 18.5484 14.072 19.3564 14.6718C20.1645 15.2715 20.758 16.1155 21.0493 17.0787C21.3406 18.0419 21.3142 19.0733 20.974 20.0204C20.6338 20.9674 19.9978 21.7798 19.1602 22.3375C20.6754 22.896 21.9695 23.9294 22.8492 25.2836ZM29.7172 25.2719C28.8372 23.9234 27.546 22.8944 26.0352 22.3375C27.0241 21.6714 27.722 20.6534 27.9868 19.4909C28.2516 18.3284 28.0635 17.1086 27.4607 16.0799C26.8578 15.0512 25.8857 14.2908 24.742 13.9536C23.5984 13.6164 22.3692 13.7277 21.3047 14.2649C21.264 14.2859 21.2284 14.3156 21.2005 14.3519C21.1725 14.3882 21.1529 14.4302 21.143 14.4749C21.1331 14.5196 21.1331 14.566 21.1431 14.6107C21.1531 14.6554 21.1728 14.6974 21.2008 14.7336C21.9923 15.721 22.4469 16.9358 22.498 18.2003C22.549 19.4647 22.1938 20.7122 21.4844 21.7602C21.4385 21.8286 21.4216 21.9125 21.4373 21.9934C21.4529 22.0743 21.4999 22.1458 21.568 22.1922C22.4929 22.8377 23.2847 23.6555 23.9 24.6008C24.1482 24.9808 24.2495 25.4382 24.1852 25.8875C24.1779 25.9322 24.1805 25.9779 24.1927 26.0215C24.2048 26.0652 24.2263 26.1056 24.2557 26.1401C24.285 26.1746 24.3215 26.2022 24.3626 26.2212C24.4038 26.2402 24.4485 26.25 24.4938 26.25H29.2047C29.3423 26.2501 29.4761 26.2047 29.5853 26.1209C29.6945 26.0371 29.773 25.9197 29.8086 25.7867C29.8303 25.6993 29.8334 25.6083 29.8177 25.5196C29.8019 25.4309 29.7677 25.3465 29.7172 25.2719Z" fill="white"/>
<defs>
<linearGradient id="paint0_linear_356_79" x1="-3.76024" y1="19.9912" x2="43.7659" y2="19.9912" gradientUnits="userSpaceOnUse">
<stop stop-color="#3F64F7" stop-opacity="0.4"/>
<stop offset="1" stop-color="#3F64F7"/>
</linearGradient>
</defs>
</svg>
